<svg width="612" height="612" viewBox="0 0 612 612" fill="none" xmlns="http://www.w3.org/2000/svg">
<rect width="612" height="612" fill="#1A1C2E"/>
<path d="M158.824 332.193C155.321 332.193 152.338 331.462 149.874 329.999C147.41 328.497 145.543 326.399 144.273 323.705C143.003 321.01 142.367 317.834 142.367 314.177C142.367 310.52 142.983 307.344 144.215 304.65C145.486 301.916 147.295 299.818 149.643 298.356C152.03 296.893 154.859 296.161 158.131 296.161C160.826 296.161 163.136 296.681 165.06 297.721C166.985 298.721 168.467 300.165 169.507 302.051H169.737V282.996H177.591V323.589H181.517V331.5H173.375V326.014H170.95C169.757 328.016 168.14 329.556 166.1 330.634C164.098 331.673 161.673 332.193 158.824 332.193ZM160.152 325.437C163.078 325.437 165.407 324.609 167.139 322.954C168.871 321.299 169.737 319.066 169.737 316.256V312.098C169.737 309.288 168.871 307.056 167.139 305.4C165.407 303.745 163.078 302.917 160.152 302.917C156.957 302.917 154.493 303.918 152.761 305.92C151.067 307.922 150.22 310.674 150.22 314.177C150.22 317.68 151.067 320.433 152.761 322.434C154.493 324.436 156.957 325.437 160.152 325.437ZM204.232 332.193C200.575 332.193 197.379 331.462 194.646 329.999C191.952 328.497 189.873 326.38 188.41 323.647C186.947 320.914 186.216 317.719 186.216 314.062C186.216 310.405 186.928 307.248 188.352 304.592C189.815 301.897 191.875 299.818 194.531 298.356C197.187 296.893 200.324 296.161 203.943 296.161C207.407 296.161 210.391 296.854 212.893 298.24C215.395 299.588 217.32 301.532 218.667 304.072C220.053 306.574 220.746 309.558 220.746 313.022V315.909H193.722C194.03 319.066 195.089 321.511 196.898 323.243C198.707 324.937 201.133 325.783 204.174 325.783C206.407 325.783 208.235 325.36 209.659 324.513C211.084 323.666 212.065 322.396 212.604 320.702H220.573C219.726 324.321 217.859 327.15 214.972 329.19C212.123 331.192 208.543 332.193 204.232 332.193ZM193.953 310.424H213.239C212.931 307.883 211.969 305.939 210.352 304.592C208.735 303.206 206.599 302.513 203.943 302.513C201.287 302.513 199.092 303.206 197.36 304.592C195.628 305.939 194.492 307.883 193.953 310.424ZM238.051 332.135C234.086 332.135 230.948 331.154 228.639 329.19C226.367 327.227 225.232 324.648 225.232 321.453C225.232 318.104 226.387 315.505 228.696 313.658C231.006 311.81 234.317 310.886 238.628 310.886H249.599V309.442C249.599 304.823 246.982 302.513 241.746 302.513C237.319 302.513 234.663 304.111 233.778 307.306H225.925C226.579 303.726 228.273 300.973 231.006 299.049C233.778 297.124 237.377 296.161 241.804 296.161C246.77 296.161 250.562 297.316 253.179 299.626C255.797 301.897 257.106 305.208 257.106 309.558V323.589H260.859V331.5H252.717V326.014H250.292C249.099 327.939 247.482 329.441 245.442 330.518C243.402 331.596 240.938 332.135 238.051 332.135ZM239.206 326.014C241.169 326.014 242.94 325.629 244.518 324.86C246.096 324.09 247.328 323.07 248.213 321.799C249.137 320.49 249.599 319.047 249.599 317.469V316.371H239.032C234.798 316.371 232.681 317.95 232.681 321.106C232.681 322.646 233.258 323.859 234.413 324.744C235.568 325.591 237.165 326.014 239.206 326.014ZM268.75 331.5V304.765H264.766V296.854H272.965V303.495H275.39C276.314 301.224 277.777 299.491 279.779 298.298C281.819 297.105 284.148 296.508 286.766 296.508H289.653V303.264H286.419C283.147 303.264 280.664 304.207 278.97 306.093C277.315 307.979 276.488 310.501 276.488 313.658V331.5H268.75ZM297.27 331.5V304.765H293.285V296.854H301.485V302.34H303.91C305.142 300.377 306.778 298.875 308.818 297.836C310.897 296.758 313.399 296.219 316.325 296.219C320.944 296.219 324.543 297.528 327.122 300.146C329.74 302.725 331.049 306.189 331.049 310.539V331.5H323.196V311.925C323.196 309.077 322.426 306.902 320.886 305.4C319.385 303.899 317.152 303.148 314.188 303.148C311.224 303.148 308.972 303.899 307.432 305.4C305.892 306.902 305.123 309.077 305.123 311.925V331.5H297.27ZM355.583 332.193C351.926 332.193 348.731 331.462 345.998 329.999C343.303 328.497 341.205 326.399 339.704 323.705C338.203 321.01 337.452 317.834 337.452 314.177C337.452 310.52 338.184 307.344 339.646 304.65C341.148 301.955 343.265 299.876 345.998 298.413C348.731 296.912 351.946 296.161 355.641 296.161C359.375 296.161 362.589 296.893 365.284 298.356C367.979 299.818 370.058 301.897 371.52 304.592C372.983 307.287 373.715 310.482 373.715 314.177C373.715 317.834 372.983 321.029 371.52 323.762C370.058 326.457 367.96 328.536 365.226 329.999C362.532 331.462 359.317 332.193 355.583 332.193ZM355.583 325.379C358.855 325.379 361.377 324.378 363.148 322.377C364.957 320.375 365.862 317.642 365.862 314.177C365.862 310.636 364.957 307.883 363.148 305.92C361.377 303.957 358.855 302.975 355.583 302.975C352.35 302.975 349.828 303.976 348.019 305.978C346.21 307.941 345.305 310.674 345.305 314.177C345.305 317.642 346.21 320.375 348.019 322.377C349.828 324.378 352.35 325.379 355.583 325.379ZM394.915 332.193C391.412 332.193 388.429 331.462 385.965 329.999C383.501 328.497 381.634 326.399 380.364 323.705C379.094 321.01 378.458 317.834 378.458 314.177C378.458 310.52 379.074 307.344 380.306 304.65C381.577 301.916 383.386 299.818 385.734 298.356C388.121 296.893 390.95 296.161 394.222 296.161C396.917 296.161 399.227 296.681 401.151 297.721C403.076 298.721 404.558 300.165 405.598 302.051H405.829V282.996H413.682V323.589H417.608V331.5H409.466V326.014H407.041C405.848 328.016 404.231 329.556 402.191 330.634C400.189 331.673 397.764 332.193 394.915 332.193ZM396.243 325.437C399.169 325.437 401.498 324.609 403.23 322.954C404.962 321.299 405.829 319.066 405.829 316.256V312.098C405.829 309.288 404.962 307.056 403.23 305.4C401.498 303.745 399.169 302.917 396.243 302.917C393.048 302.917 390.584 303.918 388.852 305.92C387.158 307.922 386.311 310.674 386.311 314.177C386.311 317.68 387.158 320.433 388.852 322.434C390.584 324.436 393.048 325.437 396.243 325.437ZM440.323 332.193C436.666 332.193 433.47 331.462 430.737 329.999C428.043 328.497 425.964 326.38 424.501 323.647C423.038 320.914 422.307 317.719 422.307 314.062C422.307 310.405 423.019 307.248 424.443 304.592C425.906 301.897 427.966 299.818 430.622 298.356C433.278 296.893 436.415 296.161 440.034 296.161C443.498 296.161 446.482 296.854 448.984 298.24C451.486 299.588 453.411 301.532 454.758 304.072C456.144 306.574 456.837 309.558 456.837 313.022V315.909H429.813C430.121 319.066 431.18 321.511 432.989 323.243C434.799 324.937 437.224 325.783 440.265 325.783C442.498 325.783 444.326 325.36 445.75 324.513C447.175 323.666 448.156 322.396 448.695 320.702H456.664C455.817 324.321 453.95 327.15 451.063 329.19C448.214 331.192 444.634 332.193 440.323 332.193ZM430.044 310.424H449.33C449.022 307.883 448.06 305.939 446.443 304.592C444.827 303.206 442.69 302.513 440.034 302.513C437.378 302.513 435.183 303.206 433.451 304.592C431.719 305.939 430.583 307.883 430.044 310.424ZM467.213 332.193C465.788 332.193 464.576 331.692 463.575 330.692C462.612 329.691 462.131 328.478 462.131 327.054C462.131 325.629 462.612 324.417 463.575 323.416C464.576 322.415 465.788 321.915 467.213 321.915C468.637 321.915 469.85 322.415 470.85 323.416C471.851 324.417 472.352 325.629 472.352 327.054C472.352 328.478 471.851 329.691 470.85 330.692C469.85 331.692 468.637 332.193 467.213 332.193Z" fill="white"/>
</svg>
